<svg fill="#ededed" xmlns="http://www.w3.org/2000/svg"  viewBox="0 0 32 32" width="32px" height="32px"><path d="M 27.699219 1.9921875 A 0.50005 0.50005 0 0 0 27.207031 2.5 C 27.207031 2.6917146 27.160682 2.8772343 27.107422 2.984375 C 27.054162 3.0915157 27.013157 3.075694 27.091797 3.0625 A 0.50005 0.50005 0 0 0 26.894531 3.1367188 C 26.797213 3.1556653 26.688002 3.1698458 26.597656 3.1894531 A 1.0001 1.0001 0 0 0 26 3 C 26 3 25.635936 3.0003671 25.214844 3.03125 C 25.004298 3.046691 24.778152 3.068636 24.548828 3.109375 C 24.319504 3.150114 24.105417 3.1717449 23.78125 3.3710938 C 23.367265 3.6260012 23.023143 4.1447544 23.001953 4.6230469 L 23 4.625 C 22.98857 4.8902765 23.09605 5.0581356 23.177734 5.2480469 C 22.783086 5.0782423 22.418022 4.8585134 21.775391 4.8730469 C 21.139847 4.8872889 20.393907 5.2959502 20.003906 5.953125 C 20.003906 5.953125 20.001953 5.9550781 20.001953 5.9550781 C 19.755635 6.3703565 19.662908 6.833757 19.666016 7.2207031 L 19.666016 7.2226562 C 19.676396 8.2899532 20.309443 9.0730754 20.982422 9.765625 C 21.655401 10.458175 22.458842 11.09387 23.171875 11.712891 C 23.884908 12.331912 24.496507 12.943723 24.779297 13.417969 C 25.062087 13.892215 25.098716 14.046348 24.869141 14.433594 C 24.652711 14.798395 24.522604 14.839397 24.1875 14.861328 C 23.904438 14.879851 23.449231 14.752048 22.988281 14.583984 C 22.989499 14.569943 22.992992 14.557153 22.994141 14.542969 C 23.012141 14.230969 22.984766 13.910422 22.884766 13.607422 C 22.788766 13.302422 22.591516 13.026266 22.353516 12.822266 C 22.120516 12.606266 21.819016 12.491531 21.541016 12.394531 C 21.764016 12.581531 21.970266 12.770906 22.072266 13.003906 C 22.181266 13.228906 22.226312 13.4605 22.195312 13.6875 C 22.175082 13.850786 22.120997 14.008017 22.054688 14.162109 C 21.741521 14.007515 21.420614 13.852229 21.146484 13.693359 C 20.902343 13.55187 20.681084 13.420208 20.474609 13.308594 C 20.268135 13.19698 20.138128 13.093137 19.767578 13.025391 C 19.67351 13.008216 19.580141 13.007802 19.486328 13.001953 C 19.498932 12.741434 19.470943 12.475805 19.380859 12.214844 C 19.190832 11.664355 18.832242 11.102184 18.271484 10.548828 C 17.845089 10.12806 17.237055 9.7947786 16.542969 9.6230469 C 16.413558 9.1123542 16.321962 8.5893033 15.96875 8.1289062 C 15.466023 7.4736218 14.591151 7 13.589844 7 C 12.309038 7 11.316381 7.8552222 10.84375 8.8027344 C 10.371119 9.7502466 10.192995 10.818032 10.015625 11.826172 C 9.8382554 12.834312 9.6635746 13.787731 9.4199219 14.353516 C 9.2980955 14.636408 9.1682969 14.80684 9.0722656 14.886719 C 8.9762344 14.966598 8.9199856 15 8.7167969 15 C 8.4895976 15 8.6516541 15.045046 8.6269531 15.003906 C 8.6022521 14.962784 8.5253519 14.705364 8.4882812 14.355469 C 8.4512108 14.005573 8.4515299 13.59395 8.2949219 13.101562 C 8.2166179 12.85537 8.0845497 12.564025 7.8085938 12.314453 C 7.5326378 12.064881 7.1193785 11.923828 6.7597656 11.923828 C 6.2873033 11.923828 5.7354062 12.204964 5.484375 12.498047 C 5.2549415 12.765915 5.1757711 12.950857 5.0703125 13.121094 C 4.9207364 13.050844 4.5745995 12.816885 4.3828125 12.455078 A 1.0001 1.0001 0 0 0 3.0117188 12 C 2.9478258 11.870101 2.9003906 11.711719 2.9003906 11.5 A 0.50005 0.50005 0 0 0 2.3925781 10.992188 A 0.50005 0.50005 0 0 0 1.9003906 11.5 C 1.9003906 11.575217 1.9165648 11.63881 1.9238281 11.708984 C 1.7833089 11.70302 1.6436152 11.701172 1.5 11.701172 A 0.50005 0.50005 0 1 0 1.5 12.701172 C 1.864 12.701172 2.0983908 12.716152 2.2246094 12.763672 A 0.50096894 0.50096894 0 0 0 2.3847656 12.794922 C 2.4161976 12.831473 2.4484567 12.869561 2.4804688 12.902344 A 1.0001 1.0001 0 0 0 2.6171875 13.390625 C 3.0657798 14.236896 3.7182984 14.774375 4.4023438 15.033203 L 4.4042969 15.033203 C 5.1812916 15.325292 5.9655083 15.033987 6.484375 14.451172 C 6.490155 14.504662 6.494035 14.510132 6.5 14.566406 C 6.544429 14.985761 6.590311 15.497394 6.9121094 16.033203 C 7.2339113 16.569012 7.9654961 17 8.7167969 17 C 9.3288581 17 9.9216294 16.783402 10.351562 16.425781 C 10.781496 16.06816 11.054701 15.613592 11.255859 15.146484 C 11.658175 14.212269 11.80987 13.165688 11.984375 12.173828 C 12.15888 11.181968 12.357226 10.249753 12.632812 9.6972656 C 12.9084 9.1447778 13.03565 9 13.589844 9 C 14.065536 9 14.198055 9.1074251 14.380859 9.3457031 C 14.550967 9.5674306 14.696153 9.9816919 14.783203 10.464844 C 14.575602 10.585822 14.375281 10.723598 14.205078 10.894531 C 13.969078 11.125531 13.806563 11.424703 13.726562 11.720703 C 13.634563 12.017703 13.664172 12.31975 13.701172 12.59375 C 13.771172 12.31975 13.852531 12.055469 14.019531 11.855469 C 14.175531 11.653469 14.368797 11.502109 14.591797 11.412109 C 14.685924 11.373175 14.783689 11.347984 14.882812 11.324219 C 14.899639 11.626283 14.905515 11.926972 14.90625 12.205078 C 14.906929 12.46251 14.904556 12.698726 14.910156 12.916016 C 14.913497 13.045645 14.916905 13.166488 14.935547 13.304688 C 14.806213 13.37701 14.68189 13.460626 14.564453 13.558594 C 14.096757 13.948496 13.683166 14.509167 13.373047 15.248047 C 13.167115 15.738693 13.096464 16.337991 13.146484 16.955078 C 12.550087 17.300228 11.946218 17.660527 11.521484 18.255859 C 11.01453 18.966437 10.83304 20.046608 11.277344 20.996094 C 11.56148 21.603387 12.051263 22.078142 12.601562 22.339844 C 13.151863 22.601545 13.736304 22.677619 14.316406 22.675781 C 15.476611 22.672081 16.680474 22.358044 17.839844 22.060547 C 18.999213 21.76305 20.115417 21.479696 20.886719 21.439453 C 21.27237 21.419333 21.557429 21.463927 21.707031 21.523438 C 21.856633 21.582957 21.892248 21.608788 21.962891 21.759766 C 21.966588 21.767667 21.967339 21.76547 21.970703 21.771484 C 21.89749 21.857026 21.597001 22.072173 21.216797 22.273438 C 20.835024 22.475531 20.396086 22.664623 19.96875 22.996094 C 19.755082 23.161829 19.521359 23.373704 19.365234 23.732422 C 19.20911 24.09114 19.221453 24.59796 19.390625 24.958984 C 19.579566 25.362059 19.925104 25.588251 20.197266 25.703125 C 20.469427 25.817999 20.709563 25.859288 20.935547 25.888672 C 21.366864 25.944752 21.751107 25.950829 21.955078 25.974609 C 21.973738 26.25766 22.041898 26.382332 21.626953 26.769531 A 1.0001 1.0001 0 0 0 21.359375 27.878906 C 21.176343 28.008954 20.927177 28.130859 20.5 28.130859 A 0.50005 0.50005 0 1 0 20.5 29.130859 C 20.615626 29.130859 20.718195 29.113983 20.824219 29.101562 C 20.825038 29.224745 20.824219 29.308094 20.824219 29.5 A 0.50005 0.50005 0 1 0 21.824219 29.5 C 21.824219 29.127854 21.821035 28.974545 21.824219 28.78125 C 21.932397 28.716702 22.02867 28.647762 22.111328 28.578125 C 22.138602 28.555147 22.146951 28.535036 22.171875 28.511719 A 1.0001 1.0001 0 0 0 22.992188 28.230469 C 23.898294 27.384944 24.013689 26.286531 23.998047 25.802734 L 23.998047 25.800781 C 23.963107 24.794546 23.158652 24.121195 22.279297 23.998047 C 22.255537 23.994747 22.24231 23.995187 22.21875 23.992188 C 22.636421 23.771262 23.103321 23.532608 23.501953 23.060547 C 23.921306 22.563948 24.113672 21.639068 23.773438 20.912109 C 23.499579 20.326834 22.991636 19.880626 22.447266 19.664062 C 21.902895 19.447501 21.342693 19.412215 20.783203 19.441406 C 19.664224 19.499786 18.487552 19.830997 17.341797 20.125 C 16.196042 20.419003 15.083874 20.673332 14.310547 20.675781 C 13.923884 20.676981 13.637047 20.616951 13.460938 20.533203 C 13.284826 20.449453 13.191504 20.369895 13.087891 20.148438 C 12.908195 19.764422 12.951045 19.694641 13.148438 19.417969 C 13.327315 19.167242 13.749906 18.847689 14.255859 18.560547 C 14.477224 18.721062 14.716535 18.866635 14.982422 18.962891 C 15.317422 19.090891 15.696344 19.118359 16.027344 19.068359 C 16.366344 19.029359 16.653156 18.878375 16.910156 18.734375 C 16.604156 18.781375 16.30325 18.814094 16.03125 18.746094 C 15.76025 18.687094 15.527609 18.577156 15.349609 18.410156 C 15.26344 18.332603 15.187615 18.247302 15.119141 18.15625 C 15.492063 17.985647 15.872146 17.812213 16.216797 17.681641 C 16.502318 17.573469 16.76386 17.477948 16.992188 17.384766 C 17.220513 17.291586 17.376613 17.263243 17.675781 17.013672 C 17.717646 16.978821 17.74848 16.93582 17.787109 16.898438 C 18.097005 17.170138 18.476419 17.367907 18.900391 17.445312 C 19.474742 17.550173 20.177198 17.532452 20.962891 17.339844 C 21.50377 17.207251 22.053449 16.906286 22.542969 16.488281 C 23.107484 16.68385 23.675934 16.899466 24.318359 16.857422 C 25.159318 16.802382 26.073274 16.325777 26.589844 15.455078 L 26.589844 15.453125 C 27.187272 14.445371 27.00576 13.245973 26.498047 12.394531 C 25.990337 11.54309 25.238889 10.857901 24.482422 10.201172 C 23.725954 9.5444428 22.953037 8.9237316 22.416016 8.3710938 C 21.878995 7.8184558 21.667637 7.3698281 21.666016 7.203125 C 21.665134 7.0933351 21.672816 7.0602332 21.722656 6.9765625 L 21.722656 6.9746094 L 21.724609 6.9726562 C 21.83901 6.7792641 21.742643 6.8747869 21.820312 6.8730469 C 21.935022 6.8704569 22.460329 7.0568916 23.050781 7.2753906 C 23.346007 7.3846401 23.668955 7.5068257 24.117188 7.4980469 C 24.565418 7.4892669 25.178145 7.1884586 25.453125 6.7246094 C 25.598382 6.4795628 25.690911 6.1399641 25.660156 5.8320312 C 25.629406 5.5240985 25.509681 5.2937971 25.410156 5.1367188 C 25.372956 5.0780018 25.365061 5.0764548 25.332031 5.0292969 C 25.342711 5.0284621 25.350678 5.0261706 25.361328 5.0253906 C 25.696998 5.0008238 26 5 26 5 A 1.0001 1.0001 0 0 0 27.003906 4.140625 C 27.489047 4.0427007 28.038459 3.9511719 28.5 3.9511719 A 0.50005 0.50005 0 1 0 28.5 2.9511719 C 28.388497 2.9511719 28.272469 2.9720313 28.158203 2.9785156 C 28.190949 2.8254947 28.207031 2.6647466 28.207031 2.5 A 0.50005 0.50005 0 0 0 27.699219 1.9921875 z M 16.894531 12.013672 C 17.20185 12.335888 17.458831 12.778168 17.490234 12.869141 C 17.528514 12.98003 17.498034 13.078045 17.306641 13.136719 C 17.12876 13.191252 16.97882 13.102747 16.923828 13.001953 C 16.917943 12.964263 16.911681 12.924552 16.910156 12.865234 C 16.905956 12.704141 16.90695 12.469318 16.90625 12.199219 C 16.906114 12.147639 16.894891 12.067876 16.894531 12.013672 z M 19.253906 14.992188 C 19.28331 14.986761 19.318378 14.990564 19.351562 14.992188 C 19.388104 15.006233 19.452257 15.02987 19.523438 15.068359 C 19.675192 15.150389 19.889718 15.276742 20.136719 15.419922 C 19.777735 15.458682 19.36604 15.495963 19.259766 15.476562 C 19.035937 15.435702 18.980181 15.315088 19.003906 15.201172 L 19.003906 15.199219 C 19.021644 15.113441 19.114531 15.017911 19.253906 14.992188 z M 16.144531 15.005859 C 16.253074 15.011668 16.357894 15.051903 16.423828 15.121094 C 16.54009 15.243111 16.532116 15.330391 16.421875 15.439453 C 16.381456 15.462559 16.316851 15.50034 16.236328 15.533203 C 16.058362 15.605833 15.801338 15.699343 15.507812 15.810547 C 15.447332 15.833457 15.360458 15.878014 15.296875 15.902344 C 15.484328 15.539094 15.759779 15.165278 15.845703 15.09375 C 15.923723 15.028664 16.035989 15.000051 16.144531 15.005859 z"/></svg>